# Blender v2.76 (sub 0) OBJ File: 'coalForge.blend'
# www.blender.org
mtllib coalForge.mtl
o Cube
v 1.000000 0.000000 0.000000
v 1.000000 0.000000 1.000000
v -0.000000 0.000000 1.000000
v 0.000000 0.000000 -0.000000
v 1.000000 0.113311 0.000000
v 1.000000 0.113311 1.000000
v -0.000000 0.113311 1.000000
v 0.000000 0.113311 0.000000
v 0.800905 0.113311 0.199096
v 0.800904 0.113311 0.800905
v 0.199095 0.113311 0.800904
v 0.199096 0.113311 0.199096
v 0.800905 0.531088 0.199096
v 0.800904 0.531088 0.800905
v 0.199095 0.531088 0.800904
v 0.199096 0.531088 0.199096
v 0.732132 0.531088 0.267868
v 0.732132 0.531088 0.732133
v 0.267868 0.531088 0.732132
v 0.267868 0.531088 0.267868
v 0.732132 0.442574 0.267868
v 0.732132 0.442574 0.732133
v 0.267868 0.442574 0.732132
v 0.267868 0.442574 0.267868
v 1.000000 0.000000 0.500000
v 0.500000 0.000000 -0.000000
v 1.000000 0.056656 0.000000
v 0.500000 0.000000 1.000000
v 1.000000 0.056656 1.000000
v 0.000000 0.000000 0.500000
v -0.000000 0.056656 1.000000
v 0.000000 0.056656 -0.000000
v 1.000000 0.113311 0.500000
v 0.500000 0.113311 0.000000
v 0.500000 0.113311 1.000000
v -0.000000 0.113311 0.500000
v 0.886088 0.113311 0.500000
v 0.500000 0.113311 0.113912
v 0.500000 0.113311 0.886088
v 0.113912 0.113311 0.500000
v 0.943044 0.113311 0.943045
v 0.056956 0.113311 0.943044
v 0.943044 0.113311 0.056956
v 0.056956 0.113311 0.056956
v 0.886088 0.531088 0.500000
v 0.500000 0.531088 0.113912
v 0.500000 0.531088 0.886088
v 0.113912 0.531088 0.500000
v 0.800904 0.322200 0.800905
v 0.199095 0.322200 0.800904
v 0.800905 0.322200 0.199096
v 0.199096 0.322200 0.199096
v 0.797847 0.531088 0.500000
v 0.500000 0.531088 0.202153
v 0.500000 0.531088 0.797848
v 0.202152 0.531088 0.500000
v 0.233481 0.531088 0.766518
v 0.233482 0.531088 0.233482
v 0.766518 0.531088 0.233482
v 0.766518 0.531088 0.766519
v 0.797847 0.442574 0.500000
v 0.500000 0.442574 0.202153
v 0.500000 0.442574 0.797848
v 0.202152 0.442574 0.500000
v 0.267868 0.486831 0.267868
v 0.732132 0.486831 0.267868
v 0.732132 0.486831 0.732133
v 0.267868 0.486831 0.732132
v 0.202152 0.486831 0.500000
v 0.797847 0.486831 0.500000
v 0.500000 0.486831 0.797848
v 0.512165 0.511434 0.491578
v 0.841968 0.531088 0.500000
v 0.500000 0.531088 0.841968
v 0.500000 0.531088 0.158032
v 0.500000 0.486831 0.202153
v 0.500000 0.322200 0.113912
v 0.113912 0.322200 0.500000
v 0.886088 0.322200 0.500000
v 0.158032 0.531088 0.500000
v 0.500000 0.113311 0.056956
v 0.056956 0.113311 0.500000
v 0.943044 0.113311 0.500000
v 0.500000 0.322200 0.886088
v 0.500000 0.056656 0.000000
v 0.000000 0.056656 0.500000
v 0.500000 0.056656 1.000000
v 1.000000 0.056656 0.500000
v 0.500000 0.113311 0.943044
v 0.500000 0.000000 0.500000
v 1.000000 0.000000 0.750000
v 0.250000 0.000000 -0.000000
v 1.000000 0.084983 0.000000
v 0.250000 0.000000 1.000000
v 1.000000 0.084983 1.000000
v 0.000000 0.000000 0.250000
v -0.000000 0.084983 1.000000
v 0.000000 0.084983 -0.000000
v 1.000000 0.113311 0.750000
v 0.250000 0.113311 0.000000
v 0.250000 0.113311 1.000000
v 0.000000 0.113311 0.250000
v 0.843496 0.113311 0.650452
v 0.349548 0.113311 0.156504
v 0.349548 0.113311 0.843496
v 0.156504 0.113311 0.349548
v 0.871974 0.113311 0.871975
v 0.028478 0.113311 0.971522
v 0.871974 0.113311 0.128026
v 0.028478 0.113311 0.028478
v 0.843496 0.531088 0.650452
v 0.349548 0.531088 0.156504
v 0.349548 0.531088 0.843496
v 0.156504 0.531088 0.349548
v 0.800904 0.426644 0.800905
v 0.199095 0.217756 0.800904
v 0.800905 0.426644 0.199096
v 0.199096 0.217756 0.199096
v 0.764990 0.531088 0.616066
v 0.383934 0.531088 0.235010
v 0.383934 0.531088 0.764990
v 0.235010 0.531088 0.383934
v 0.250674 0.531088 0.749325
v 0.216289 0.531088 0.216289
v 0.783711 0.531088 0.216289
v 0.749325 0.531088 0.749326
v 0.764990 0.442574 0.616066
v 0.383934 0.442574 0.235010
v 0.383934 0.442574 0.764990
v 0.235010 0.442574 0.383934
v 0.267868 0.464703 0.267868
v 0.732132 0.508960 0.267868
v 0.732132 0.464703 0.732133
v 0.267868 0.508960 0.732132
v 1.000000 0.000000 0.250000
v 0.750000 0.000000 0.000000
v 1.000000 0.028328 0.000000
v 0.750000 0.000000 1.000000
v 1.000000 0.028328 1.000000
v 0.000000 0.000000 0.750000
v -0.000000 0.028328 1.000000
v 0.000000 0.028328 -0.000000
v 1.000000 0.113311 0.250000
v 0.750000 0.113311 0.000000
v 0.750000 0.113311 1.000000
v -0.000000 0.113311 0.750000
v 0.843496 0.113311 0.349548
v 0.650452 0.113311 0.156504
v 0.650452 0.113311 0.843497
v 0.156503 0.113311 0.650452
v 0.971522 0.113311 0.971522
v 0.128026 0.113311 0.871974
v 0.971522 0.113311 0.028478
v 0.128026 0.113311 0.128026
v 0.843496 0.531088 0.349548
v 0.650452 0.531088 0.156504
v 0.650452 0.531088 0.843497
v 0.156503 0.531088 0.650452
v 0.800904 0.217756 0.800905
v 0.199095 0.426644 0.800904
v 0.800905 0.217756 0.199096
v 0.199096 0.426644 0.199096
v 0.764990 0.531088 0.383934
v 0.616066 0.531088 0.235010
v 0.616066 0.531088 0.764990
v 0.235010 0.531088 0.616066
v 0.216288 0.531088 0.783711
v 0.250675 0.531088 0.250675
v 0.749325 0.531088 0.250675
v 0.783711 0.531088 0.783712
v 0.764990 0.442574 0.383934
v 0.616066 0.442574 0.235010
v 0.616066 0.442574 0.764990
v 0.235010 0.442574 0.616066
v 0.267868 0.508960 0.267868
v 0.732132 0.464703 0.267868
v 0.732132 0.508960 0.732133
v 0.267868 0.464703 0.732132
v 0.202152 0.464703 0.500000
v 0.202152 0.508960 0.500000
v 0.235010 0.486831 0.383934
v 0.235010 0.486831 0.616066
v 0.797847 0.464703 0.500000
v 0.797847 0.508960 0.500000
v 0.764990 0.486831 0.616066
v 0.764990 0.486831 0.383934
v 0.500000 0.464703 0.797848
v 0.500000 0.508960 0.797848
v 0.383934 0.486831 0.764990
v 0.616066 0.486831 0.764990
v 0.519181 0.456032 0.732757
v 0.546903 0.424406 0.398630
v 0.603992 0.434534 0.441109
v 0.342822 0.448241 0.517190
v 0.819908 0.531088 0.500000
v 0.864028 0.531088 0.500000
v 0.804243 0.531088 0.633259
v 0.804243 0.531088 0.366741
v 0.500000 0.531088 0.819908
v 0.500000 0.531088 0.864028
v 0.366741 0.531088 0.804243
v 0.633259 0.531088 0.804243
v 0.500000 0.531088 0.180092
v 0.500000 0.531088 0.135972
v 0.633259 0.531088 0.195757
v 0.366741 0.531088 0.195757
v 0.500000 0.464703 0.202153
v 0.500000 0.508960 0.202153
v 0.616066 0.486831 0.235010
v 0.383934 0.486831 0.235010
v 0.500000 0.426644 0.113912
v 0.500000 0.217756 0.113912
v 0.650452 0.322200 0.156504
v 0.349548 0.322200 0.156504
v 0.113912 0.426644 0.500000
v 0.113912 0.217756 0.500000
v 0.156504 0.322200 0.349548
v 0.156503 0.322200 0.650452
v 0.886088 0.426644 0.500000
v 0.886088 0.217756 0.500000
v 0.843496 0.322200 0.650452
v 0.843496 0.322200 0.349548
v 0.180092 0.531088 0.500000
v 0.135972 0.531088 0.500000
v 0.195757 0.531088 0.366741
v 0.195757 0.531088 0.633259
v 0.500000 0.113311 0.085434
v 0.500000 0.113311 0.028478
v 0.721522 0.113311 0.056956
v 0.278478 0.113311 0.056956
v 0.085434 0.113311 0.500000
v 0.028478 0.113311 0.500000
v 0.056956 0.113311 0.278478
v 0.056956 0.113311 0.721522
v 0.914566 0.113311 0.500000
v 0.971522 0.113311 0.500000
v 0.943044 0.113311 0.721522
v 0.943044 0.113311 0.278478
v 0.500000 0.426644 0.886088
v 0.500000 0.217756 0.886088
v 0.349548 0.322200 0.843496
v 0.650452 0.322200 0.843497
v 0.250000 0.056656 -0.000000
v 0.750000 0.056656 0.000000
v 0.500000 0.084983 0.000000
v 0.500000 0.028328 0.000000
v 0.000000 0.056656 0.250000
v -0.000000 0.056656 0.750000
v 0.000000 0.028328 0.500000
v 0.000000 0.084983 0.500000
v 0.250000 0.056656 1.000000
v 0.750000 0.056656 1.000000
v 0.500000 0.028328 1.000000
v 0.500000 0.084983 1.000000
v 1.000000 0.056656 0.750000
v 1.000000 0.056656 0.250000
v 1.000000 0.028328 0.500000
v 1.000000 0.084983 0.500000
v 0.500000 0.113311 0.914566
v 0.500000 0.113311 0.971522
v 0.278478 0.113311 0.943044
v 0.721522 0.113311 0.943044
v 0.250000 0.000000 0.500000
v 0.750000 0.000000 0.500000
v 0.500000 0.000000 0.250000
v 0.500000 0.000000 0.750000
v 0.750000 0.000000 0.750000
v 0.750000 0.000000 0.250000
v 0.250000 0.000000 0.250000
v 0.735761 0.113311 0.971522
v 0.264239 0.113311 0.971522
v 0.314013 0.113311 0.893270
v 1.000000 0.084983 0.250000
v 1.000000 0.028328 0.250000
v 1.000000 0.028328 0.750000
v 0.750000 0.084983 1.000000
v 0.750000 0.028328 1.000000
v 0.250000 0.028328 1.000000
v -0.000000 0.084983 0.750000
v -0.000000 0.028328 0.750000
v 0.000000 0.028328 0.250000
v 0.750000 0.028328 0.000000
v 0.750000 0.084983 0.000000
v 0.250000 0.084983 0.000000
v 0.650452 0.217756 0.843497
v 0.349548 0.217756 0.843496
v 0.349548 0.426644 0.843496
v 0.971522 0.113311 0.264239
v 0.971522 0.113311 0.735761
v 0.893270 0.113311 0.685987
v 0.028478 0.113311 0.735761
v 0.028478 0.113311 0.264239
v 0.106730 0.113311 0.314013
v 0.264239 0.113311 0.028478
v 0.735761 0.113311 0.028478
v 0.685987 0.113311 0.106730
v 0.176130 0.531088 0.641856
v 0.176130 0.531088 0.358144
v 0.215383 0.531088 0.375337
v 0.843496 0.217756 0.349548
v 0.843496 0.217756 0.650452
v 0.843496 0.426644 0.650452
v 0.156503 0.217756 0.650452
v 0.156504 0.217756 0.349548
v 0.156504 0.426644 0.349548
v 0.349548 0.217756 0.156504
v 0.650452 0.217756 0.156504
v 0.650452 0.426644 0.156504
v 0.383934 0.508960 0.235010
v 0.616066 0.508960 0.235010
v 0.616066 0.464703 0.235010
v 0.358144 0.531088 0.176130
v 0.641856 0.531088 0.176130
v 0.624663 0.531088 0.215384
v 0.641855 0.531088 0.823870
v 0.358144 0.531088 0.823870
v 0.375337 0.531088 0.784617
v 0.823870 0.531088 0.358145
v 0.823870 0.531088 0.641856
v 0.784616 0.531088 0.624663
v 0.317540 0.496178 0.393276
v 0.594524 0.459898 0.356687
v 0.624028 0.443569 0.625552
v 0.616066 0.508960 0.764990
v 0.383934 0.508960 0.764990
v 0.383934 0.464703 0.764990
v 0.764990 0.508960 0.383934
v 0.764990 0.508960 0.616066
v 0.764990 0.464703 0.616066
v 0.235010 0.508960 0.616066
v 0.235010 0.508960 0.383934
v 0.235010 0.464703 0.383934
v 0.235010 0.464703 0.616066
v 0.764990 0.464703 0.383934
v 0.616066 0.464703 0.764990
v 0.382692 0.494778 0.649139
v 0.784617 0.531088 0.375338
v 0.624663 0.531088 0.784617
v 0.375337 0.531088 0.215384
v 0.383934 0.464703 0.235010
v 0.349548 0.426644 0.156504
v 0.156503 0.426644 0.650452
v 0.843496 0.426644 0.349548
v 0.215383 0.531088 0.624663
v 0.314013 0.113311 0.106730
v 0.106730 0.113311 0.685987
v 0.893270 0.113311 0.314013
v 0.650452 0.426644 0.843497
v 0.250000 0.028328 -0.000000
v 0.000000 0.084983 0.250000
v 0.250000 0.084983 1.000000
v 1.000000 0.084983 0.750000
v 0.685987 0.113311 0.893270
v 0.250000 0.000000 0.750000
vn 0.000000 -1.000000 0.000000
vn 0.000000 1.000000 -0.000000
vn 1.000000 0.000000 0.000000
vn -0.000000 0.000000 1.000000
vn -1.000000 -0.000000 -0.000000
vn 0.000000 0.000000 -1.000000
vn 0.272400 0.000000 0.962200
vn 0.962200 0.000000 -0.272400
vn -0.962200 0.000000 0.272400
vn -0.272400 0.000000 -0.962200
vn -0.247200 0.936900 0.247200
vn 0.962200 0.000000 0.272400
vn -0.962200 0.000000 -0.272400
vn 0.272400 0.000000 -0.962200
vn 0.109500 0.990400 0.084500
vn 0.069500 0.945300 -0.318700
vn -0.272400 0.945200 0.180200
vn -0.272400 0.000000 0.962200
vn 0.012200 0.984200 -0.176900
vn 0.196000 0.976700 -0.086800
vn -0.281000 0.917700 -0.281000
vn -0.004600 0.992000 0.126500
vn 0.076100 0.994200 -0.076100
vn -0.210800 0.977300 0.019400
vn 0.004600 1.000000 0.004600
vn -0.016500 0.999400 -0.030800
vn 0.457100 0.886800 0.067600
vn -0.012500 0.940300 0.340000
vn -0.086100 0.995700 0.034500
vn -0.172800 0.976000 -0.132500
usemtl Material
s off
f 354//1 94//1 3//1 140//1
f 353//2 107//2 10//2 149//2
f 352//3 99//3 6//3 95//3
f 351//4 101//4 7//4 97//4
f 350//5 102//5 8//5 98//5
f 349//6 92//6 4//6 142//6
f 348//7 115//7 14//7 157//7
f 347//2 109//2 9//2 147//2
f 346//2 152//2 11//2 150//2
f 345//2 154//2 12//2 104//2
f 344//2 123//2 19//2 166//2
f 343//8 117//8 13//8 155//8
f 342//9 160//9 15//9 158//9
f 341//10 162//10 16//10 112//10
f 340//7 131//7 24//7 128//7
f 339//2 168//2 20//2 120//2
f 338//2 126//2 18//2 165//2
f 337//2 169//2 17//2 163//2
f 336//11 174//11 23//11 129//11
f 335//10 133//10 22//10 173//10
f 334//9 176//9 21//9 171//9
f 333//8 178//8 23//8 174//8
f 332//12 179//12 64//12 130//12
f 331//12 180//12 69//12 181//12
f 330//8 134//8 68//8 182//8
f 329//13 183//13 61//13 127//13
f 328//13 184//13 70//13 185//13
f 327//9 132//9 66//9 186//9
f 326//14 187//14 63//14 129//14
f 325//14 188//14 71//14 189//14
f 324//10 177//10 67//10 190//10
f 323//15 191//15 63//15 173//15
f 322//16 192//16 72//16 193//16
f 321//17 130//17 64//17 194//17
f 320//2 195//2 53//2 119//2
f 319//2 196//2 73//2 197//2
f 318//2 125//2 59//2 198//2
f 317//2 199//2 55//2 121//2
f 316//2 200//2 74//2 201//2
f 315//2 170//2 60//2 202//2
f 314//2 203//2 54//2 164//2
f 313//2 204//2 75//2 205//2
f 312//2 124//2 58//2 206//2
f 311//18 207//18 62//18 172//18
f 310//18 208//18 76//18 209//18
f 309//7 175//7 65//7 210//7
f 308//14 211//14 46//14 156//14
f 307//14 212//14 77//14 213//14
f 306//10 118//10 52//10 214//10
f 305//13 215//13 48//13 114//13
f 304//13 216//13 78//13 217//13
f 303//9 116//9 50//9 218//9
f 302//12 219//12 45//12 111//12
f 301//12 220//12 79//12 221//12
f 300//8 161//8 51//8 222//8
f 299//2 223//2 56//2 122//2
f 298//2 224//2 80//2 225//2
f 297//2 167//2 57//2 226//2
f 296//2 227//2 38//2 148//2
f 295//2 228//2 81//2 229//2
f 294//2 110//2 44//2 230//2
f 293//2 231//2 40//2 106//2
f 292//2 232//2 82//2 233//2
f 291//2 108//2 42//2 234//2
f 290//2 235//2 37//2 103//2
f 289//2 236//2 83//2 237//2
f 288//2 153//2 43//2 238//2
f 287//18 239//18 47//18 113//18
f 286//18 240//18 84//18 241//18
f 285//7 159//7 49//7 242//7
f 284//6 243//6 32//6 98//6
f 283//6 244//6 85//6 245//6
f 282//6 136//6 26//6 246//6
f 281//5 247//5 32//5 142//5
f 280//5 248//5 86//5 249//5
f 279//5 146//5 36//5 250//5
f 278//4 251//4 31//4 141//4
f 277//4 252//4 87//4 253//4
f 276//4 145//4 35//4 254//4
f 275//3 255//3 29//3 139//3
f 274//3 256//3 88//3 257//3
f 273//3 143//3 33//3 258//3
f 272//2 259//2 39//2 105//2
f 271//2 260//2 89//2 261//2
f 270//2 151//2 41//2 262//2
f 269//1 263//1 30//1 96//1
f 268//1 264//1 90//1 265//1
f 267//1 138//1 28//1 266//1
f 264//1 267//1 266//1 90//1
f 25//1 91//1 267//1 264//1
f 91//1 2//1 138//1 267//1
f 136//1 268//1 265//1 26//1
f 1//1 135//1 268//1 136//1
f 135//1 25//1 264//1 268//1
f 92//1 269//1 96//1 4//1
f 26//1 265//1 269//1 92//1
f 265//1 90//1 263//1 269//1
f 260//2 270//2 262//2 89//2
f 35//2 145//2 270//2 260//2
f 145//2 6//2 151//2 270//2
f 108//2 271//2 261//2 42//2
f 7//2 101//2 271//2 108//2
f 101//2 35//2 260//2 271//2
f 152//2 272//2 105//2 11//2
f 42//2 261//2 272//2 152//2
f 261//2 89//2 259//2 272//2
f 256//3 273//3 258//3 88//3
f 27//3 93//3 273//3 256//3
f 93//3 5//3 143//3 273//3
f 135//3 274//3 257//3 25//3
f 1//3 137//3 274//3 135//3
f 137//3 27//3 256//3 274//3
f 91//3 275//3 139//3 2//3
f 25//3 257//3 275//3 91//3
f 257//3 88//3 255//3 275//3
f 252//4 276//4 254//4 87//4
f 29//4 95//4 276//4 252//4
f 95//4 6//4 145//4 276//4
f 138//4 277//4 253//4 28//4
f 2//4 139//4 277//4 138//4
f 139//4 29//4 252//4 277//4
f 94//4 278//4 141//4 3//4
f 28//4 253//4 278//4 94//4
f 253//4 87//4 251//4 278//4
f 248//5 279//5 250//5 86//5
f 31//5 97//5 279//5 248//5
f 97//5 7//5 146//5 279//5
f 140//5 280//5 249//5 30//5
f 3//5 141//5 280//5 140//5
f 141//5 31//5 248//5 280//5
f 96//5 281//5 142//5 4//5
f 30//5 249//5 281//5 96//5
f 249//5 86//5 247//5 281//5
f 244//6 282//6 246//6 85//6
f 27//6 137//6 282//6 244//6
f 137//6 1//6 136//6 282//6
f 144//6 283//6 245//6 34//6
f 5//6 93//6 283//6 144//6
f 93//6 27//6 244//6 283//6
f 100//6 284//6 98//6 8//6
f 34//6 245//6 284//6 100//6
f 245//6 85//6 243//6 284//6
f 240//7 285//7 242//7 84//7
f 39//7 149//7 285//7 240//7
f 149//7 10//7 159//7 285//7
f 116//18 286//18 241//18 50//18
f 11//18 105//18 286//18 116//18
f 105//18 39//18 240//18 286//18
f 160//18 287//18 113//18 15//18
f 50//18 241//18 287//18 160//18
f 241//18 84//18 239//18 287//18
f 236//2 288//2 238//2 83//2
f 33//2 143//2 288//2 236//2
f 143//2 5//2 153//2 288//2
f 151//2 289//2 237//2 41//2
f 6//2 99//2 289//2 151//2
f 99//2 33//2 236//2 289//2
f 107//2 290//2 103//2 10//2
f 41//2 237//2 290//2 107//2
f 237//2 83//2 235//2 290//2
f 232//2 291//2 234//2 82//2
f 36//2 146//2 291//2 232//2
f 146//2 7//2 108//2 291//2
f 110//2 292//2 233//2 44//2
f 8//2 102//2 292//2 110//2
f 102//2 36//2 232//2 292//2
f 154//2 293//2 106//2 12//2
f 44//2 233//2 293//2 154//2
f 233//2 82//2 231//2 293//2
f 228//2 294//2 230//2 81//2
f 34//2 100//2 294//2 228//2
f 100//2 8//2 110//2 294//2
f 153//2 295//2 229//2 43//2
f 5//2 144//2 295//2 153//2
f 144//2 34//2 228//2 295//2
f 109//2 296//2 148//2 9//2
f 43//2 229//2 296//2 109//2
f 229//2 81//2 227//2 296//2
f 224//2 297//2 226//2 80//2
f 48//2 158//2 297//2 224//2
f 158//2 15//2 167//2 297//2
f 124//2 298//2 225//2 58//2
f 16//2 114//2 298//2 124//2
f 114//2 48//2 224//2 298//2
f 168//2 299//2 122//2 20//2
f 58//2 225//2 299//2 168//2
f 225//2 80//2 223//2 299//2
f 220//8 300//8 222//8 79//8
f 37//8 147//8 300//8 220//8
f 147//8 9//8 161//8 300//8
f 159//12 301//12 221//12 49//12
f 10//12 103//12 301//12 159//12
f 103//12 37//12 220//12 301//12
f 115//12 302//12 111//12 14//12
f 49//12 221//12 302//12 115//12
f 221//12 79//12 219//12 302//12
f 216//9 303//9 218//9 78//9
f 40//9 150//9 303//9 216//9
f 150//9 11//9 116//9 303//9
f 118//13 304//13 217//13 52//13
f 12//13 106//13 304//13 118//13
f 106//13 40//13 216//13 304//13
f 162//13 305//13 114//13 16//13
f 52//13 217//13 305//13 162//13
f 217//13 78//13 215//13 305//13
f 212//10 306//10 214//10 77//10
f 38//10 104//10 306//10 212//10
f 104//10 12//10 118//10 306//10
f 161//14 307//14 213//14 51//14
f 9//14 148//14 307//14 161//14
f 148//14 38//14 212//14 307//14
f 117//14 308//14 156//14 13//14
f 51//14 213//14 308//14 117//14
f 213//14 77//14 211//14 308//14
f 208//7 309//7 210//7 76//7
f 54//7 120//7 309//7 208//7
f 120//7 20//7 175//7 309//7
f 132//18 310//18 209//18 66//18
f 17//18 164//18 310//18 132//18
f 164//18 54//18 208//18 310//18
f 176//18 311//18 172//18 21//18
f 66//18 209//18 311//18 176//18
f 209//18 76//18 207//18 311//18
f 204//2 312//2 206//2 75//2
f 46//2 112//2 312//2 204//2
f 112//2 16//2 124//2 312//2
f 125//2 313//2 205//2 59//2
f 13//2 156//2 313//2 125//2
f 156//2 46//2 204//2 313//2
f 169//2 314//2 164//2 17//2
f 59//2 205//2 314//2 169//2
f 205//2 75//2 203//2 314//2
f 200//2 315//2 202//2 74//2
f 47//2 157//2 315//2 200//2
f 157//2 14//2 170//2 315//2
f 167//2 316//2 201//2 57//2
f 15//2 113//2 316//2 167//2
f 113//2 47//2 200//2 316//2
f 123//2 317//2 121//2 19//2
f 57//2 201//2 317//2 123//2
f 201//2 74//2 199//2 317//2
f 196//2 318//2 198//2 73//2
f 45//2 155//2 318//2 196//2
f 155//2 13//2 125//2 318//2
f 170//2 319//2 197//2 60//2
f 14//2 111//2 319//2 170//2
f 111//2 45//2 196//2 319//2
f 126//2 320//2 119//2 18//2
f 60//2 197//2 320//2 126//2
f 197//2 73//2 195//2 320//2
f 192//19 321//19 194//19 72//19
f 62//20 128//20 321//20 192//20
f 128//21 24//21 130//21 321//21
f 171//22 322//22 193//22 61//22
f 21//23 172//23 322//23 171//23
f 172//24 62//24 192//24 322//24
f 127//25 323//25 173//25 22//25
f 61//26 193//26 323//26 127//26
f 193//27 72//27 191//27 323//27
f 188//10 324//10 190//10 71//10
f 55//10 165//10 324//10 188//10
f 165//10 18//10 177//10 324//10
f 134//14 325//14 189//14 68//14
f 19//14 121//14 325//14 134//14
f 121//14 55//14 188//14 325//14
f 178//14 326//14 129//14 23//14
f 68//14 189//14 326//14 178//14
f 189//14 71//14 187//14 326//14
f 184//9 327//9 186//9 70//9
f 53//9 163//9 327//9 184//9
f 163//9 17//9 132//9 327//9
f 177//13 328//13 185//13 67//13
f 18//13 119//13 328//13 177//13
f 119//13 53//13 184//13 328//13
f 133//13 329//13 127//13 22//13
f 67//13 185//13 329//13 133//13
f 185//13 70//13 183//13 329//13
f 180//8 330//8 182//8 69//8
f 56//8 166//8 330//8 180//8
f 166//8 19//8 134//8 330//8
f 175//12 331//12 181//12 65//12
f 20//12 122//12 331//12 175//12
f 122//12 56//12 180//12 331//12
f 131//12 332//12 130//12 24//12
f 65//12 181//12 332//12 131//12
f 181//12 69//12 179//12 332//12
f 179//8 333//8 174//8 64//8
f 69//8 182//8 333//8 179//8
f 182//8 68//8 178//8 333//8
f 183//9 334//9 171//9 61//9
f 70//9 186//9 334//9 183//9
f 186//9 66//9 176//9 334//9
f 187//10 335//10 173//10 63//10
f 71//10 190//10 335//10 187//10
f 190//10 67//10 133//10 335//10
f 191//28 336//28 129//28 63//28
f 72//29 194//29 336//29 191//29
f 194//30 64//30 174//30 336//30
f 195//2 337//2 163//2 53//2
f 73//2 198//2 337//2 195//2
f 198//2 59//2 169//2 337//2
f 199//2 338//2 165//2 55//2
f 74//2 202//2 338//2 199//2
f 202//2 60//2 126//2 338//2
f 203//2 339//2 120//2 54//2
f 75//2 206//2 339//2 203//2
f 206//2 58//2 168//2 339//2
f 207//7 340//7 128//7 62//7
f 76//7 210//7 340//7 207//7
f 210//7 65//7 131//7 340//7
f 211//10 341//10 112//10 46//10
f 77//10 214//10 341//10 211//10
f 214//10 52//10 162//10 341//10
f 215//9 342//9 158//9 48//9
f 78//9 218//9 342//9 215//9
f 218//9 50//9 160//9 342//9
f 219//8 343//8 155//8 45//8
f 79//8 222//8 343//8 219//8
f 222//8 51//8 117//8 343//8
f 223//2 344//2 166//2 56//2
f 80//2 226//2 344//2 223//2
f 226//2 57//2 123//2 344//2
f 227//2 345//2 104//2 38//2
f 81//2 230//2 345//2 227//2
f 230//2 44//2 154//2 345//2
f 231//2 346//2 150//2 40//2
f 82//2 234//2 346//2 231//2
f 234//2 42//2 152//2 346//2
f 235//2 347//2 147//2 37//2
f 83//2 238//2 347//2 235//2
f 238//2 43//2 109//2 347//2
f 239//7 348//7 157//7 47//7
f 84//7 242//7 348//7 239//7
f 242//7 49//7 115//7 348//7
f 243//6 349//6 142//6 32//6
f 85//6 246//6 349//6 243//6
f 246//6 26//6 92//6 349//6
f 247//5 350//5 98//5 32//5
f 86//5 250//5 350//5 247//5
f 250//5 36//5 102//5 350//5
f 251//4 351//4 97//4 31//4
f 87//4 254//4 351//4 251//4
f 254//4 35//4 101//4 351//4
f 255//3 352//3 95//3 29//3
f 88//3 258//3 352//3 255//3
f 258//3 33//3 99//3 352//3
f 259//2 353//2 149//2 39//2
f 89//2 262//2 353//2 259//2
f 262//2 41//2 107//2 353//2
f 263//1 354//1 140//1 30//1
f 90//1 266//1 354//1 263//1
f 266//1 28//1 94//1 354//1
