# Blender v2.76 (sub 0) OBJ File: 'blank.blend'
# www.blender.org
mtllib metalBlank.mtl
o Cube
v 0.825259 0.000000 0.389363
v 0.825259 0.000000 0.610637
v 0.174741 0.000000 0.610637
v 0.174741 0.000000 0.389363
v 0.745389 0.183694 0.416531
v 0.745389 0.183694 0.583469
v 0.254611 0.183694 0.583469
v 0.254611 0.183694 0.416531
vt 0.000000 0.000000
vt 0.279047 0.000000
vt 0.279047 0.746184
vt 0.000000 0.746184
vt 0.957920 0.000000
vt 0.957920 0.562952
vt 0.747396 0.562953
vt 0.747396 0.000000
vt 1.000000 0.594116
vt 1.000000 0.785605
vt 0.747396 0.816768
vt 0.513221 0.746184
vt 0.279047 0.654568
vt 0.279047 0.091616
vt 0.513221 0.000000
vt 0.252604 0.777348
vt 0.252604 0.968837
vt 0.000000 1.000000
vt 0.513221 0.091616
vt 0.747396 0.746184
vt 0.513221 0.654568
vn 0.000000 -1.000000 0.000000
vn 0.000000 1.000000 0.000000
vn 0.917100 0.398700 0.000000
vn -0.000000 0.146300 0.989200
vn -0.917100 0.398700 -0.000000
vn 0.000000 0.146300 -0.989200
usemtl Material
s off
f 1/1/1 2/2/1 3/3/1 4/4/1
f 5/5/2 8/6/2 7/7/2 6/8/2
f 1/7/3 5/9/3 6/10/3 2/11/3
f 2/12/4 6/13/4 7/14/4 3/15/4
f 3/4/5 7/16/5 8/17/5 4/18/5
f 5/19/6 1/8/6 4/20/6 8/21/6
