# Blender v2.76 (sub 0) OBJ File: 'pool.blend'
# www.blender.org
mtllib pool.mtl
o Cube
v 0.845774 0.006784 0.154226
v 0.845774 0.006784 0.845774
v 0.154226 0.006784 0.845774
v 0.154226 0.006784 0.154226
v 0.915016 0.834192 0.083590
v 0.915015 0.834192 0.913622
v 0.084984 0.834192 0.913622
v 0.084984 0.834192 0.083590
v 0.915016 0.668655 0.083590
v 0.915015 0.668655 0.913622
v 0.084984 0.668655 0.913622
v 0.084984 0.668655 0.083590
v 0.594097 0.557607 0.404509
v 0.606644 0.534421 0.606644
v 0.393356 0.534421 0.606644
v 0.405903 0.557607 0.404509
v 0.594951 0.168513 0.405049
v 0.594951 0.168513 0.594951
v 0.405049 0.168513 0.594951
v 0.405049 0.168513 0.405049
v 0.829102 0.037201 0.170898
v 0.829102 0.037201 0.829102
v 0.170898 0.037201 0.829101
v 0.170899 0.037201 0.170898
v 0.614371 0.296215 0.385629
v 0.614371 0.296215 0.614371
v 0.385629 0.296215 0.614371
v 0.385629 0.296215 0.385629
v 0.586336 0.414923 0.413664
v 0.586336 0.414923 0.586336
v 0.413664 0.414923 0.586336
v 0.413664 0.414923 0.413664
v 0.662694 0.055570 0.337306
v 0.662694 0.055570 0.662694
v 0.337306 0.055570 0.662694
v 0.337306 0.055570 0.337306
v 0.843322 0.672564 0.156678
v 0.843322 0.672564 0.843323
v 0.156678 0.672564 0.843322
v 0.156678 0.672564 0.156678
v 0.848168 0.756844 0.846774
v 0.151832 0.756844 0.846774
v 0.848168 0.756844 0.150438
v 0.151832 0.756844 0.150438
v 0.500000 0.006784 0.154226
v 0.500000 0.006784 0.845774
v 0.500000 0.834192 0.083623
v 0.500000 0.834192 0.913589
v 0.500000 0.668655 0.083623
v 0.500000 0.668655 0.913589
v 0.500000 0.534421 0.606644
v 0.500000 0.557607 0.404509
v 0.500000 0.168513 0.594951
v 0.500000 0.168513 0.405049
v 0.500000 0.037201 0.829102
v 0.500000 0.037201 0.170898
v 0.500000 0.296215 0.385629
v 0.500000 0.296215 0.614371
v 0.500000 0.414923 0.413664
v 0.500000 0.414923 0.586336
v 0.500000 0.055570 0.337306
v 0.500000 0.055570 0.662694
v 0.500000 0.672564 0.156678
v 0.500000 0.672564 0.843322
v 0.500000 0.756844 0.094567
v 0.500000 0.756844 0.902645
v 0.845774 0.006784 0.500000
v 0.154226 0.006784 0.500000
v 0.914983 0.834192 0.498606
v 0.085017 0.834192 0.498606
v 0.085017 0.668655 0.498606
v 0.914983 0.668655 0.498606
v 0.606644 0.534421 0.500000
v 0.393356 0.534421 0.500000
v 0.405049 0.168513 0.500000
v 0.594951 0.168513 0.500000
v 0.829102 0.037201 0.500000
v 0.170898 0.037201 0.500000
v 0.385629 0.296215 0.500000
v 0.614371 0.296215 0.500000
v 0.413664 0.414923 0.500000
v 0.586336 0.414923 0.500000
v 0.662694 0.055570 0.500000
v 0.337306 0.055570 0.500000
v 0.843322 0.672564 0.500000
v 0.156678 0.672564 0.500000
v 0.095961 0.756844 0.498606
v 0.904039 0.756844 0.498606
v 0.500000 0.672564 0.500000
v 0.500000 0.006784 0.500000
vn 0.000000 -1.000000 0.000000
vn -0.075400 0.349900 -0.933700
vn 1.000000 0.000000 -0.000100
vn 0.000100 0.000000 1.000000
vn -1.000000 -0.000000 0.000100
vn 0.000000 0.480700 -0.876900
vn 0.000100 0.000000 -1.000000
vn -0.339900 -0.939100 -0.051000
vn 0.000000 -0.916200 0.400700
vn 0.399200 -0.916900 -0.000000
vn 0.985900 -0.167500 0.000000
vn 0.000000 -0.167500 0.985900
vn -0.990600 -0.108900 -0.082200
vn 0.000000 -0.945000 -0.327000
vn -0.857600 0.514400 -0.000000
vn 0.000000 0.514400 0.857600
vn 0.857600 0.514400 0.000000
vn 0.000000 -0.150300 -0.988600
vn 0.876900 0.480700 0.000000
vn -0.000000 0.480700 0.876900
vn -0.876900 0.480700 -0.000000
vn 0.000000 0.994000 -0.109700
vn 0.000000 0.229800 -0.973200
vn -0.988600 -0.150300 -0.000000
vn 0.000000 -0.150300 0.988600
vn 0.988600 -0.150300 0.000000
vn 0.000000 -0.064000 -0.997900
vn -0.973200 0.229800 -0.000000
vn 0.000000 0.229800 0.973200
vn 0.973200 0.229800 0.000000
vn 0.000000 0.514400 -0.857600
vn 0.109700 0.994000 0.000000
vn -0.000000 0.994000 0.109700
vn -0.109700 0.994000 -0.000000
vn 0.000000 1.000000 0.000000
vn -0.928200 0.364400 0.075000
vn 0.929000 0.362300 -0.075100
vn 0.074600 0.376600 0.923400
vn 0.064400 0.470400 0.880100
vn 0.880100 0.470400 -0.064400
vn -0.880100 0.470400 0.064400
vn -0.064400 0.470400 -0.880100
vn 0.064400 0.470400 -0.880100
vn -0.064400 0.470400 0.880100
vn -0.074600 0.376600 0.923400
vn -0.000100 0.000000 -1.000000
vn -0.000100 0.000000 1.000000
vn 0.075400 0.349900 -0.933700
vn -0.880100 0.470400 -0.064400
vn 0.880100 0.470400 0.064400
vn 0.928200 0.364400 0.075000
vn -0.929000 0.362300 -0.075100
vn -0.985900 -0.167500 -0.000000
vn 0.990600 -0.108900 -0.082200
vn 0.339900 -0.939100 -0.051000
vn -0.399200 -0.916900 -0.000000
vn -1.000000 0.000000 -0.000100
vn 1.000000 -0.000000 0.000100
usemtl Material
s off
f 90//1 46//1 3//1 68//1
f 66//2 41//2 38//2 64//2
f 72//3 69//3 6//3 10//3
f 50//4 48//4 7//4 11//4
f 71//5 70//5 8//5 12//5
f 56//6 45//6 4//6 24//6
f 47//7 49//7 12//7 8//7
f 74//8 71//8 12//8 16//8
f 51//9 50//9 11//9 15//9
f 73//10 72//10 10//10 14//10
f 82//11 73//11 14//11 30//11
f 60//12 51//12 15//12 31//12
f 81//13 74//13 16//13 32//13
f 49//14 52//14 16//14 12//14
f 84//15 75//15 20//15 36//15
f 62//16 53//16 19//16 35//16
f 83//17 76//17 18//17 34//17
f 57//18 54//18 20//18 28//18
f 67//19 77//19 22//19 2//19
f 46//20 55//20 23//20 3//20
f 68//21 78//21 24//21 4//21
f 61//22 56//22 24//22 36//22
f 59//23 57//23 28//23 32//23
f 75//24 79//24 28//24 20//24
f 53//25 58//25 27//25 19//25
f 76//26 80//26 26//26 18//26
f 52//27 59//27 32//27 16//27
f 79//28 81//28 32//28 28//28
f 58//29 60//29 31//29 27//29
f 80//30 82//30 30//30 26//30
f 54//31 61//31 36//31 20//31
f 77//32 83//32 34//32 22//32
f 55//33 62//33 35//33 23//33
f 78//34 84//34 36//34 24//34
f 89//35 86//35 39//35 64//35
f 88//36 43//36 37//36 85//36
f 87//37 42//37 39//37 86//37
f 65//38 44//38 40//38 63//38
f 47//39 8//39 44//39 65//39
f 70//40 7//40 42//40 87//40
f 69//41 5//41 43//41 88//41
f 48//42 6//42 41//42 66//42
f 7//43 48//43 66//43 42//43
f 5//44 47//44 65//44 43//44
f 43//45 65//45 63//45 37//45
f 85//35 89//35 64//35 38//35
f 22//33 34//33 62//33 55//33
f 17//31 33//31 61//31 54//31
f 26//29 30//29 60//29 58//29
f 13//27 29//27 59//27 52//27
f 18//25 26//25 58//25 53//25
f 29//23 25//23 57//23 59//23
f 33//22 21//22 56//22 61//22
f 2//20 22//20 55//20 46//20
f 25//18 17//18 54//18 57//18
f 34//16 18//16 53//16 62//16
f 9//14 13//14 52//14 49//14
f 30//12 14//12 51//12 60//12
f 14//9 10//9 50//9 51//9
f 5//46 9//46 49//46 47//46
f 21//6 1//6 45//6 56//6
f 10//47 6//47 48//47 50//47
f 42//48 66//48 64//48 39//48
f 67//1 2//1 46//1 90//1
f 1//1 67//1 90//1 45//1
f 37//35 63//35 89//35 85//35
f 6//49 69//49 88//49 41//49
f 8//50 70//50 87//50 44//50
f 44//51 87//51 86//51 40//51
f 41//52 88//52 85//52 38//52
f 63//35 40//35 86//35 89//35
f 23//34 35//34 84//34 78//34
f 21//32 33//32 83//32 77//32
f 25//30 29//30 82//30 80//30
f 27//28 31//28 81//28 79//28
f 17//26 25//26 80//26 76//26
f 19//24 27//24 79//24 75//24
f 3//21 23//21 78//21 68//21
f 1//19 21//19 77//19 67//19
f 33//17 17//17 76//17 83//17
f 35//15 19//15 75//15 84//15
f 31//53 15//53 74//53 81//53
f 29//54 13//54 73//54 82//54
f 13//55 9//55 72//55 73//55
f 15//56 11//56 71//56 74//56
f 11//57 7//57 70//57 71//57
f 9//58 5//58 69//58 72//58
f 45//1 90//1 68//1 4//1
